<svg id="e9gPBAiCErk1" xmlns="http://www.w3.org/2000/svg" xmlns:xlink="http://www.w3.org/1999/xlink" viewBox="0 0 900 900" shape-rendering="geometricPrecision" text-rendering="geometricPrecision" project-id="6212d98d684448c8a6c6decbd36dc236" export-id="ff641872310a4b21a2f45d3c38ba8cb8" cached="false"><ellipse rx="100" ry="100" transform="matrix(4.195647 0 0 4.262465 450 450)" fill="#009666" stroke-width="0"/><ellipse rx="100" ry="100" transform="matrix(3.700687 0 0 3.817633 450 450)" fill="#fff" stroke-width="0"/><ellipse rx="100" ry="100" transform="matrix(3.421583 0 0 3.5555 450 450)" fill="#009666" stroke-width="0"/><path d="M344.985643,476.821102c10.688623-.751797,21.590253-.243228,32.305502-.219735l59.041528.233555.006946,63.915148-62.578162-.114704c-10.679361-.016584-22.927344-1.529851-33.317292,1.162244-6.233968,1.615533-11.358904,5.044224-15.876071,10.406302-7.212187,8.56136-9.282073,17.802653-9.326064,29.682145l.008104,81.21476c.005788,13.391377-1.316253,32.627143,1.019893,45.187951c1.335934,7.180762,5.217549,14.285516,9.548333,19.412659c4.291425,5.082919,9.238082,8.745164,15.172218,10.428414c11.523291,3.265616,25.606156,1.565782,37.438541,1.575457l59.675923.031786-.026626,20.966004-.003473,41.475953q-30.353697-.292979-60.709708-.157546c-33.892646.005528-61.411247,4.006357-89.018988-24.726368-17.98416-18.716142-28.169202-46.5492-29.607009-74.744334-1.087037-21.346049-.181752-43.322279-.182909-64.730515-.002316-22.15036-1.889292-61.83527,2.057151-81.850471c3.236802-16.419292,9.937305-31.155334,19.333985-43.707851c17.048776-22.770868,39.829097-33.70785,65.038178-35.440852Z" transform="matrix(.864355 0 0 0.892967-34.390628-120.885074)" fill="#fff"/><path d="M615.627232,515.793529c.579012-2.051969,1.166145-4.112087,1.886718-6.102946c4.510255-12.448976,12.495737-22.979069,23.363512-27.995597c24.353284-11.243054,82.380889-8.273063,106.020562,3.639495q1.763722.858269,3.490312,1.815673t3.41141,2.011229q1.683658,1.055182,3.322062,2.205426q1.638405,1.148884,3.226915,2.391474t3.123644,2.57345q1.533974,1.330861,3.012251,2.748635q1.477117,1.417773,2.893896,2.917027q1.415619,1.500614,2.768579,3.079992q1.3518,1.57802,2.63746,3.233448q1.2845,1.654069,2.498219,3.380114q1.21488,1.726045,2.355497,3.519989q1.141778,1.792589,2.205813,3.649002q1.065195,1.856414,2.051486,3.771224.985132,1.914809,1.8902,3.88394t1.727751,3.987149q.821523,2.018019,1.558341,4.080852c5.121755,14.746747,5.871336,30.209172,6.0187,45.928261l-56.087511-.181974c-.192617-11.290584-.602219-22.465737-8.193184-30.774108-12.552593-13.740455-38.546603-13.889837-54.473474-12.831939q-2.683874.181975-5.364267.441357c-.408441,26.973008.017405,54.007128-.056857,80.991-.114874,42.200495-.497787,84.669878.380593,126.856792c17.661584-4.524925,50.734848-14.25786,60.837957-32.517807c5.889902-10.644166,6.478196-23.091786,6.732311-35.379157q-23.083868-.502467-46.172378-.332714l.03597-63.017596l102.545335.124938.011603,50.746519c.046414,33.955952,1.481758,70.399796-20.733013,96.297251-5.260996,6.13418-12.33909,13.251566-19.266339,16.569211-5.150764,2.466165-11.804172,2.311351-17.327406,3.257892q-7.050246,1.286046-14.005343,3.153323c-12.829915,3.422213-42.191241,16.61131-52.403422,16.546125-14.97539-.096419-32.902693-9.466762-43.201899-22.119442-6.52345-8.015039-9.787496-16.351928-11.35744-27.179427-1.85771-12.808852-1.307707-26.154122-1.298424-39.105566l.054536-51.352197c.054536-48.0848-.892304-96.343424-.136921-144.406494.002321-.168395.010444-.335431.016245-.503826Z" transform="matrix(.864355 0 0 0.892967 30.51814-119.319793)" fill="#fff"/><path d="M439.844156,471.729823c4.126813-.408797,8.514522.08712,12.534102,1.277326c10.29658,3.04789,18.991297,10.931658,25.903957,20.450616c7.259785,10.000136,12.40918,22.191694,17.904596,33.65546l19.471082,40.520583c14.699766,30.490961,30.392266,60.311763,45.574028,90.462283l-.444409-180.874974l52.285488.04155-.081807,312.700903-.01216,6.294146c-10.022417.008042-29.532191,1.518585-38.192639-.998539-5.087487-1.478374-9.457509-6.089077-12.872383-10.730609-9.257414-12.578912-16.665336-28.962995-23.930648-43.288346-10.630439-20.95994-21.434441-41.957409-31.457964-63.34759-7.261996-15.496791-13.847429-31.48816-21.4665-46.735652l.309538,166.233308-52.038962-.210431-.256475-324.51181c2.229783-.466433,4.520369-.654077,6.771156-.938225Z" transform="matrix(.864355 0 0 0.892967-2.120763-116.578215)" fill="#fff"/></svg>
